<?xml version="1.0" encoding="UTF-8" standalone="no"?>
<svg
   viewBox="0 0 902.5 1000"
   version="1.1"
   id="svg44"
   sodipodi:docname="Full_Wordmark_White.svg"
   inkscape:version="1.3-dev (9a08afd5a, 2023-02-10)"
   xmlns:inkscape="http://www.inkscape.org/namespaces/inkscape"
   xmlns:sodipodi="http://sodipodi.sourceforge.net/DTD/sodipodi-0.dtd"
   xmlns="http://www.w3.org/2000/svg"
   xmlns:svg="http://www.w3.org/2000/svg"
   xmlns:rdf="http://www.w3.org/1999/02/22-rdf-syntax-ns#"
   xmlns:cc="http://creativecommons.org/ns#"
   xmlns:dc="http://purl.org/dc/elements/1.1/">
  <sodipodi:namedview
     id="namedview44"
     pagecolor="#707070"
     bordercolor="#000000"
     borderopacity="0.25"
     inkscape:showpageshadow="2"
     inkscape:pageopacity="0.0"
     inkscape:pagecheckerboard="true"
     inkscape:deskcolor="#373737"
     showgrid="false"
     inkscape:zoom="2.434"
     inkscape:cx="222.06245"
     inkscape:cy="198.64421"
     inkscape:window-width="2400"
     inkscape:window-height="1494"
     inkscape:window-x="-11"
     inkscape:window-y="-11"
     inkscape:window-maximized="1"
     inkscape:current-layer="Layer_1" />
  <defs
     id="defs1">
    <style
       id="style1">.cls-1{isolation:isolate;}.cls-2{fill:#43ebeb;}.cls-10,.cls-2,.cls-3,.cls-4,.cls-6,.cls-7,.cls-8,.cls-9{opacity:0.7;}.cls-12,.cls-3,.cls-5{fill:#042fa8;}.cls-6{fill:#09ad00;}.cls-7{fill:#4f1fff;}.cls-8{fill:#18bf00;}.cls-9{fill:#56dd24;}.cls-10{fill:#7ff249;}.cls-11{fill:#fff;}.cls-12{mix-blend-mode:multiply;}</style>
  </defs>
  <title
     id="title1">Logo</title>
  <g
     class="cls-1"
     id="g44">
    <g
       id="Layer_1"
       data-name="Layer 1">
      <path
         class="cls-2"
         d="M317.7,4.89c78.69,0,143.08,64.39,143.08,143.08v86.56l-3.56,2h0l12.19-6.93V143.08C469.41,64.38,405,0,326.32,0h-1.79a141.76,141.76,0,0,0-73.79,20.82A141.64,141.64,0,0,1,315.9,4.89Z"
         transform="translate(-49.36 0)"
         id="path1" />
      <path
         class="cls-3"
         d="M243.94,128.59V338l4.36-2.49V126.15c0-32,14.13-60.37,38.28-76.35-1.22.57-2.38,1.23-3.56,1.86C258.36,67.53,243.94,96.22,243.94,128.59Z"
         transform="translate(-49.36 0)"
         id="path2" />
      <g
         class="cls-4"
         id="g3">
        <path
           class="cls-5"
           d="M159.28,406.1h0l-12.35,7a50.28,50.28,0,0,0-26,44.08,49.76,49.76,0,0,0,10.44,30.56l0,0L322.38,738.36a84.43,84.43,0,0,1-26.53,121.23l-5.58,3.18,0,0L71.53,987.38h0L300.64,856.87a84.37,84.37,0,0,0,26.1-120.94L135.67,485.36l0,0a49.75,49.75,0,0,1-10.43-30.56,50.27,50.27,0,0,1,26.12-44.14l2.86-1.63c.24-.13.46-.31.7-.44Z"
           transform="translate(-49.36 0)"
           id="path3" />
      </g>
      <path
         class="cls-6"
         d="M343.13,36.59S379.94,41,405.31,66.36c26.73,26.72,37.08,63,37.08,89.46V225.1l3.56-2V153.74c0-26.43-10.35-62.73-37.08-89.45C383.5,38.91,346.66,34.5,346.69,34.52c-17.89-1.64-33.84,1.38-47.32,7.88-.68.45-1.31,1-2,1.42C310.54,37.81,325.91,35,343.13,36.59Z"
         transform="translate(-49.36 0)"
         id="path4" />
      <path
         class="cls-6"
         d="M172.82,148c0-50.25,26.32-94.58,65.79-120.12l-.77.37c-41,25.23-68.58,70.41-68.58,121.82V380.52l3.56-2Z"
         transform="translate(-49.36 0)"
         id="path5" />
      <path
         class="cls-6"
         d="M421.23,495C444.1,465.09,446,426.71,446,416.37V351l-3.56,2v65.45c0,10.34-1.85,48.73-24.72,78.63a111.21,111.21,0,0,1-27.51,25.57l1.49-.72A111.27,111.27,0,0,0,421.23,495Z"
         transform="translate(-49.36 0)"
         id="path6" />
      <path
         class="cls-6"
         d="M315.9,562.66c-78.7,0-143.08-64.39-143.08-143.08V398.42l-7.93,4.51v0l4.37-2.48v21.18c0,78.69,64.38,143.08,143.08,143.08h1.8a141.72,141.72,0,0,0,64.52-15.62c.93-.57,1.87-1.11,2.79-1.7a141.54,141.54,0,0,1-63.75,15.25Z"
         transform="translate(-49.36 0)"
         id="path7" />
      <path
         class="cls-6"
         d="M279.62,819.62a49.34,49.34,0,0,0-9.12-29.16L81.16,542.15a83.69,83.69,0,0,1-17.82-52,84.66,84.66,0,0,1,42.89-73.65l-2.94,1.67a84.7,84.7,0,0,0-43.51,74.05A83.67,83.67,0,0,0,77.6,544.22L266.94,792.53a49.36,49.36,0,0,1,9.12,29.16,50.41,50.41,0,0,1-24.14,43l3.37-1.91A50.48,50.48,0,0,0,279.62,819.62Z"
         transform="translate(-49.36 0)"
         id="path8" />
      <polygon
         class="cls-6"
         points="9.98 974.46 9.98 994.31 13.54 992.29 13.54 972.44 9.98 974.46"
         id="polygon8" />
      <path
         class="cls-7"
         d="M312.34,7h1.8C392.83,7,457.22,71.35,457.22,150v86.52l3.56-2V148c0-78.69-64.39-143.08-143.08-143.08h-1.8a141.64,141.64,0,0,0-65.16,15.93c-.93.57-1.87,1.12-2.79,1.71A141.58,141.58,0,0,1,312.34,7Z"
         transform="translate(-49.36 0)"
         id="path9" />
      <path
         class="cls-7"
         d="M288.16,49.14c-.52.23-1.07.42-1.58.66-24.15,16-38.28,44.35-38.28,76.35V335.51l3.56-2V124.08C251.86,93,265.24,65.35,288.16,49.14Z"
         transform="translate(-49.36 0)"
         id="path10" />
      <path
         class="cls-7"
         d="M248.3,448.1c0,52.16,37.22,97.36,94.83,91.91,0,0,16-1,35.51-10.73.68-.43,1.37-.89,2.06-1.34-18.79,9-34,10-34,10-57.61,5.45-94.83-39.76-94.83-91.91V353.52l-3.56,2Z"
         transform="translate(-49.36 0)"
         id="path11" />
      <path
         class="cls-7"
         d="M125.27,454.78a49.75,49.75,0,0,0,10.43,30.56l0,0L326.74,735.93a84.37,84.37,0,0,1-26.1,120.94l3.13-1.78A84.41,84.41,0,0,0,330.3,733.86L139.23,483.29l0,0a50.17,50.17,0,0,1,15-74.26l-2.86,1.63A50.27,50.27,0,0,0,125.27,454.78Z"
         transform="translate(-49.36 0)"
         id="path12" />
      <path
         class="cls-7"
         d="M454.58,346.06l2.64-1.51v77.1c0,50.55-26.64,95.09-66.51,120.56l.77-.38c41.4-25.14,69.3-70.54,69.3-122.25V342.5l-6.2,3.53Z"
         transform="translate(-49.36 0)"
         id="path13" />
      <path
         class="cls-8"
         d="M343.13,36.59S379.94,41,405.31,66.36c26.73,26.72,37.08,63,37.08,89.46V225.1l3.56-2V153.74c0-26.43-10.35-62.73-37.08-89.45C383.5,38.91,346.66,34.5,346.69,34.52c-17.89-1.64-33.84,1.38-47.32,7.88-.68.45-1.31,1-2,1.42C310.54,37.81,325.91,35,343.13,36.59Z"
         transform="translate(-49.36 0)"
         id="path14" />
      <path
         class="cls-9"
         d="M405.31,66.36C379.94,41,343.1,36.58,343.13,36.59c-17.22-1.58-32.59,1.22-45.74,7.23-.69.48-1.39,1-2.07,1.47A90.1,90.1,0,0,1,338.76,39s36.81,4.4,62.19,29.77c26.73,26.73,37.08,63,37.08,89.46v69.33l-5.62,3.19h0L286.72,313.72h0L442.39,225.1V155.82C442.39,129.39,432,93.08,405.31,66.36Z"
         transform="translate(-49.36 0)"
         id="path15" />
      <path
         class="cls-9"
         d="M413.31,499.5a111.31,111.31,0,0,1-25.64,24.35c.82-.38,1.66-.8,2.49-1.21a111.21,111.21,0,0,0,27.51-25.57c22.87-29.9,24.72-68.29,24.72-78.63V353l3.56-2v-.05l1.29-.73h0L438,355.43v65.44C438,431.21,436.17,469.6,413.31,499.5Z"
         transform="translate(-49.36 0)"
         id="path16" />
      <path
         class="cls-9"
         d="M59.34,994.31V974.46l3.56-2v-.05l189-107.69a50.41,50.41,0,0,0,24.14-43,49.36,49.36,0,0,0-9.12-29.16L77.6,544.22a83.67,83.67,0,0,1-17.82-52.05,84.7,84.7,0,0,1,43.51-74.05l2.94-1.67c.22-.12.4-.28.62-.4l62.41-35.53V150c0-51.41,27.57-96.59,68.58-121.82-.59.3-1.21.56-1.8.87C193.61,54,164.89,100,164.89,152.47V383l-5.61,3.19h0L98.84,420.61a84.67,84.67,0,0,0-43.42,74,83.67,83.67,0,0,0,17.82,52L262.58,795a49.43,49.43,0,0,1,9.11,29.16,50.44,50.44,0,0,1-24.33,43.17l-5.59,3.19h0L55,976.9v19.9Z"
         transform="translate(-49.36 0)"
         id="path17" />
      <path
         class="cls-9"
         d="M314.14,564.73h-1.8c-78.7,0-143.08-64.39-143.08-143.08V400.47L164.89,403v21.13c0,78.7,64.39,143.08,143.09,143.08h1.79a141.78,141.78,0,0,0,66.33-16.49c.86-.51,1.71-1,2.56-1.56A141.72,141.72,0,0,1,314.14,564.73Z"
         transform="translate(-49.36 0)"
         id="path18" />
      <path
         class="cls-9"
         d="M59.34,994.31V974.46l3.56-2v-.05l189-107.69a50.41,50.41,0,0,0,24.14-43,49.36,49.36,0,0,0-9.12-29.16L77.6,544.22a83.67,83.67,0,0,1-17.82-52.05,84.7,84.7,0,0,1,43.51-74.05l2.94-1.67c.22-.12.4-.28.62-.4l62.41-35.53V150c0-51.41,27.57-96.59,68.58-121.82-.59.3-1.21.56-1.8.87C193.61,54,164.89,100,164.89,152.47V383l-5.61,3.19h0L98.84,420.61a84.67,84.67,0,0,0-43.42,74,83.67,83.67,0,0,0,17.82,52L262.58,795a49.43,49.43,0,0,1,9.11,29.16,50.44,50.44,0,0,1-24.33,43.17l-5.59,3.19h0L55,976.9v19.9Z"
         transform="translate(-49.36 0)"
         id="path19" />
      <path
         class="cls-10"
         d="M333.15,42.23S370,46.62,395.33,72c26.73,26.73,37.08,63,37.08,89.46v69.32l5.62-3.19V158.25c0-26.43-10.35-62.73-37.08-89.46C375.57,43.42,338.74,39,338.76,39a90.1,90.1,0,0,0-43.44,6.27c-.9.68-1.85,1.3-2.72,2A90.77,90.77,0,0,1,333.15,42.23Z"
         transform="translate(-49.36 0)"
         id="path20" />
      <path
         class="cls-10"
         d="M413.31,499.5C436.17,469.6,438,431.21,438,420.87V355.43l-5.62,3.2v65.44c0,10.35-1.85,48.73-24.72,78.63a111.2,111.2,0,0,1-23,22.44c1-.41,1.95-.83,2.95-1.29A111.31,111.31,0,0,0,413.31,499.5Z"
         transform="translate(-49.36 0)"
         id="path21" />
      <path
         class="cls-10"
         d="M164.89,152.47C164.89,100,193.61,54,236,29.09c-45.52,24-76.76,71.8-76.76,126.59V386.19l5.61-3.19Z"
         transform="translate(-49.36 0)"
         id="path22" />
      <path
         class="cls-10"
         d="M308,567.16c-78.7,0-143.09-64.38-143.09-143.08V403l-1.71,1c-1.35.75-2.63,1.6-3.9,2.47v20.89c0,78.69,64.39,143.08,143.08,143.08h1.8a141.75,141.75,0,0,0,71.94-19.7,141.78,141.78,0,0,1-66.33,16.49Z"
         transform="translate(-49.36 0)"
         id="path23" />
      <path
         class="cls-10"
         d="M271.69,824.12A49.43,49.43,0,0,0,262.58,795L73.24,546.65a83.67,83.67,0,0,1-17.82-52,84.67,84.67,0,0,1,43.42-74l-5.53,3.15a84.67,84.67,0,0,0-43.51,74,83.78,83.78,0,0,0,17.82,52.06L257,798.16a49.43,49.43,0,0,1,9.11,29.17,50.47,50.47,0,0,1-24.31,43.15l5.59-3.19A50.44,50.44,0,0,0,271.69,824.12Z"
         transform="translate(-49.36 0)"
         id="path24" />
      <polygon
         class="cls-10"
         points="5.61 996.8 5.61 976.9 0 980.1 0 1000 9.98 994.32 9.98 994.31 5.61 996.8"
         id="polygon24" />
      <path
         class="cls-2"
         d="M159.28,406.15l-5,2.86a50.17,50.17,0,0,0-15,74.26l0,0L330.3,733.86a84.41,84.41,0,0,1-26.53,121.23l-3.13,1.78-.22.15,12-6.82A84.43,84.43,0,0,0,338.93,729L147.86,478.4l0,0a49.71,49.71,0,0,1-10.44-30.55,50.24,50.24,0,0,1,21.83-41.42v-.25Z"
         transform="translate(-49.36 0)"
         id="path25" />
      <path
         class="cls-2"
         d="M260.49,119.19c0-29.19,11.73-55.39,32.11-71.89-1.51.56-3,1.2-4.44,1.84-22.92,16.21-36.3,43.84-36.3,74.94V333.49l8.63-4.92Z"
         transform="translate(-49.36 0)"
         id="path26" />
      <path
         class="cls-2"
         d="M251.86,353.52V446c0,52.15,37.22,97.36,94.83,91.91,0,0,15.22-1,34-10,1.34-.89,2.67-1.82,4-2.8-16.6,7.07-29.4,7.91-29.4,7.91-57.61,5.45-94.83-39.76-94.83-91.91V348.61Z"
         transform="translate(-49.36 0)"
         id="path27" />
      <path
         class="cls-2"
         d="M391.48,541.83c46.14-23.81,77.93-71.9,77.93-127.14v-77.1l-8.63,4.91v77.08C460.78,471.29,432.88,516.69,391.48,541.83Z"
         transform="translate(-49.36 0)"
         id="path28" />
      <path
         class="cls-11"
         d="M447.44,242.34l5.62-3.2.2-.11V152.67A141.87,141.87,0,0,0,423.75,66c-27.57-36.11-69.12-56.82-114-56.82H308a141.2,141.2,0,0,0-62.81,14.76,4.16,4.16,0,0,1-.63.32,4.15,4.15,0,0,0-.76.38l-.42.19,0,.05-.66.34c-.48.25-1,.5-1,.55a13.06,13.06,0,0,0-1.76,1c-.45.28-.91.59-1.54.92-41.31,26.72-66,71.76-66,120.46v230.1L106,416.1a85,85,0,0,0-43.1,74,83.76,83.76,0,0,0,17.89,52.31L270.17,790.69a49.09,49.09,0,0,1,9,28.93,50.14,50.14,0,0,1-24.12,42.82l-3.42,1.94s0,0,0,0l-.11.08L71.33,967.18l-8.63,4.91-.21.11V993l9.23-5.25,5.62-3,213.14-121.4c.34-.2.66-.43,1-.65s.58-.41.86-.59l3.74-2.13A84.84,84.84,0,0,0,322.7,738.1L131.85,487.83l0,0-.22-.29a49.64,49.64,0,0,1,12.64-72.22l2.82-1.61.15-.09,17.22-9.81v0l7.92-4.52v20.49A143.91,143.91,0,0,0,315.9,563.26h1.8a141.27,141.27,0,0,0,64-15.32l.33-.21c.24-.17.49-.35.72-.48l.31-.16c.11,0,.23-.11.36-.17,1.41-.84,2.81-1.7,4.17-2.54.26-.13.51-.26.76-.37s.52-.25.81-.41A142.89,142.89,0,0,0,452.67,436c.28-3.52.59-7.6.59-11.7V346.8l-7.72,4.41v65.35c0,7.71-1.19,47.73-24.63,78.37a110.57,110.57,0,0,1-27.74,25.64l-.82.47a8.29,8.29,0,0,1-.91.53c-1.5.94-2.93,1.76-4.15,2.45-2.64,1.63-5,3-7.25,4.13-.89.51-1.94,1.11-3,1.68-.64.4-1.27.74-1.9,1.07l-1,.52C355,541,338.9,542.22,338.73,542.23c-3.17.29-6.3.45-9.39.45-21.27,0-40.28-7.14-55.4-20.89-18.8-17.1-29.6-43-29.6-71.06V358.41ZM283.24,52.2c1.28-.82,2.65-1.59,4-2.3l.86-.48c.55-.35,1.16-.67,1.74-1,.42-.23.84-.45,1.27-.7A79.42,79.42,0,0,1,299.55,43a85.69,85.69,0,0,1,37.6-8.28q4.67,0,9.5.43v0c1.51.19,37.24,5,61.94,29.64,27.24,27.26,37,63.94,37,89.18v68.91L274.94,320V320l-10,5.67h0l-16.25,9.25v-.05l-4.37,2.48V128.78C244.34,96.51,258.89,67.87,283.24,52.2Zm131.29,451,0-.05ZM400.38,516l.27-.21Zm-72.48,27h0Z"
         transform="translate(-49.36 0)"
         id="path29" />
      <path
         class="cls-3"
         d="M454.58,346.06l-1.72,1v77.05c0,3.94-.28,7.81-.6,11.67a143.33,143.33,0,0,1-63.35,107.33c.6-.3,1.21-.57,1.8-.87,39.87-25.47,66.51-70,66.51-120.56v-77.1Z"
         transform="translate(-49.36 0)"
         id="path30" />
      <path
         class="cls-3"
         d="M243.94,450.53c0,52.16,37.22,97.37,94.82,91.92,0,0,17.69-1.13,38.49-12.26.46-.28.92-.62,1.39-.91C359.17,539,343.13,540,343.13,540c-57.61,5.45-94.83-39.75-94.83-91.91V355.54l3.56-2v0l112.2-63.87L243.94,358Z"
         transform="translate(-49.36 0)"
         id="path31" />
      <g
         class="cls-4"
         id="g31">
        <polygon
           class="cls-12"
           points="397.88 242.24 397.88 242.24 314.7 289.6 397.88 242.24"
           id="polygon31" />
      </g>
      <path
         class="cls-3"
         d="M457.22,150C457.22,71.35,392.83,7,314.14,7h-1.8A141.58,141.58,0,0,0,248,22.53c-.84.53-1.73,1-2.56,1.55A141.64,141.64,0,0,1,308,9.39h1.79c46.26,0,87.45,22.35,113.65,56.68a142,142,0,0,1,29.44,86.4V239l-5.62,3.2h0l10-5.68Z"
         transform="translate(-49.36 0)"
         id="path32" />
      <path
         class="cls-11"
         d="M951.46,115.22a.91.91,0,0,0-.82,0L877,157V113a.82.82,0,0,0-1.22-.7l-10.88,6.2a.8.8,0,0,0-.4.7v45L838.39,179a.79.79,0,0,0-.41.7v7.09a.81.81,0,0,0,.41.7.74.74,0,0,0,.81,0l25.28-14.43V236c0,.56.06,13.68,5.67,19.29a9.94,9.94,0,0,0,7.14,3.06,11.18,11.18,0,0,0,1.89-.18c6-1.08,11.68-7.1,16.13-16.93a79.43,79.43,0,0,0,6.22-19.8.84.84,0,0,0-.55-.89.91.91,0,0,0-1,.4c-5.25,9.66-14,25.73-18.8,25.73a.78.78,0,0,1-.22,0c-1.18-.12-2.15-1.46-2.89-3.95-1.23-4.23-1.12-12.8-1.12-12.89V166l74.47-42.23a.84.84,0,0,0,.41-.71v-7.09A.8.8,0,0,0,951.46,115.22Z"
         transform="translate(-49.36 0)"
         id="path33" />
      <path
         class="cls-11"
         d="M830.89,538.58c-1.91,5.64-5.83,14.19-8.57,14.19a1.66,1.66,0,0,1-.32,0c-1.7-.44-1.52-3.62-1.52-3.7v-53c0-.57.26-13.84-7.67-16.42-11.17-3.62-20.31,8.55-26.34,16.59l-.2.26a161.71,161.71,0,0,0-13.54,22.38v-20.6a.59.59,0,0,0-.3-.51.57.57,0,0,0-.59,0L761,503.93a.63.63,0,0,0-.31.53V597.4a.58.58,0,0,0,.3.51.49.49,0,0,0,.3.1.57.57,0,0,0,.29-.08l10.88-6.2a.63.63,0,0,0,.31-.53V527.69c.92-1.63,9.8-17.46,12.58-21.29s11-15.23,17.34-15.23a5.25,5.25,0,0,1,1.63.27c4.07,1.45,4.13,8.82,4.13,8.9v52.23c0,.39.05,9.72,4.72,12.86,1.9,1.27,4.26,1.31,7,.2,6.69-2.75,10.82-12,11.94-26.81a.62.62,0,0,0-.48-.64A.63.63,0,0,0,830.89,538.58Z"
         transform="translate(-49.36 0)"
         id="path34" />
      <path
         class="cls-11"
         d="M735.31,528a17.66,17.66,0,0,0-13.67-6.23h-.27a21.62,21.62,0,0,0-6.7,1.33s2.07-.6,2-.62a26.22,26.22,0,0,0-3.87,1.29l-1.59.78-58.5,33.28V513.43a.58.58,0,0,0-.3-.51.57.57,0,0,0-.59,0L641,519.11a.6.6,0,0,0-.3.52v45.09l-26.19,15a.6.6,0,0,0-.3.52v7.09a.58.58,0,0,0,.29.51.57.57,0,0,0,.6,0l25.6-14.62v63.32c0,.56.06,13.59,5.62,19.15a9.77,9.77,0,0,0,7,3,10.63,10.63,0,0,0,1.85-.18c5.88-1.06,11.56-7,16-16.78a79.64,79.64,0,0,0,6.2-19.76.6.6,0,0,0-.39-.65.69.69,0,0,0-.72.29c-5.61,10.33-14,25.84-19,25.84a1,1,0,0,1-.24,0c-1.28-.12-2.31-1.52-3.08-4.13-1.25-4.23-1.13-12.84-1.13-12.94v-64l45-25.6c-3.69,8-6.19,19.46-6.33,38.24-.23,30.44,9.3,38.31,17.11,41.62a26.18,26.18,0,0,0,7.58,1.52c7.77,0,13.66-4.93,18.92-13.53,4.85-7.93,6.91-27.24,7.43-32.29.82-14.31.35-19.54.29-20C742.76,555,741.79,535.56,735.31,528Zm-1.9,67.57c-1.59,5.61-5.5,15.17-14,16.08a10,10,0,0,1-8.37-2c-3.82-3.27-6.59-9-7.06-19.6-.12-2.66-.45-9.93-.45-12.58l.06-4.28c.51-19.58,4.5-33.66,11.57-40.7a12.39,12.39,0,0,1,8.73-4,10.92,10.92,0,0,1,2.13.22,9.38,9.38,0,0,1,6.88,5.56c3.24,8.36,4.1,21.14,4.09,27C737,574.8,735.15,589.41,733.41,595.56Z"
         transform="translate(-49.36 0)"
         id="path35" />
      <path
         class="cls-11"
         d="M532.38,447.49a80.62,80.62,0,0,0,6.21-19.75.61.61,0,0,0-.4-.66.67.67,0,0,0-.71.29c-5.61,10.33-14,25.84-19,25.84h-.24c-1.28-.13-2.32-1.53-3.09-4.14-1.24-4.22-1.12-12.84-1.12-12.93V319.25a.58.58,0,0,0-.3-.51.57.57,0,0,0-.59,0l-10.88,6.2a.62.62,0,0,0-.31.52V442.33c0,.55.07,13.58,5.62,19.15a9.8,9.8,0,0,0,7,3,9.64,9.64,0,0,0,1.84-.18C522.29,463.21,528,457.25,532.38,447.49Z"
         transform="translate(-49.36 0)"
         id="path36" />
      <path
         class="cls-11"
         d="M571.94,430.34c11.14,0,16.89-7.15,20.32-12.76,6.36-10.43,7.7-22.63,7.7-31a.6.6,0,0,0-.54-.59.55.55,0,0,0-.64.46c-.07.32-7,31.5-22.1,34.27A9.53,9.53,0,0,1,568.6,419c-4-3.19-6.31-10.35-6.8-21.26-.11-2.39-.17-5.28-.18-8l38-21.66a.6.6,0,0,0,.31-.53c0-.81,0-19.93-6.56-27.6a17.66,17.66,0,0,0-13.67-6.23h-.27a22.92,22.92,0,0,0-17,8.34c-6.71,8.3-12.91,19.95-12.91,48.83,0,34.33,14.69,38.7,19.2,39.22A28.13,28.13,0,0,0,571.94,430.34Zm-10.23-46.25c.62-19,4.6-32.72,11.54-39.64,3.11-3.13,6.15-4,8.52-4a9,9,0,0,1,1.71.16,10.29,10.29,0,0,1,7.52,5.61c2.48,5.21,3.3,17,3.43,19.21Z"
         transform="translate(-49.36 0)"
         id="path37" />
      <path
         class="cls-11"
         d="M637.33,390.67a28.17,28.17,0,0,0,3.23.19c11.13,0,16.88-7.15,20.31-12.76a43.65,43.65,0,0,0,2.19-4.07v81.9c0,.25-.19,26-15.68,35.38a12,12,0,0,1-11.35,1c-3.3-1.55-7.58-5.58-9.19-16.06-2.57-16.7-2.06-39.27-2.05-39.49a.59.59,0,0,0-.55-.61h0a.58.58,0,0,0-.58.52c-.24,1.59-5.43,39.29,1.33,54.15a20,20,0,0,0,17.59,11.81c.26,0,.52,0,.78,0,9.57,0,18.57-6.47,24.8-17.87,7.13-13,7-34.5,7-34.71V281a.57.57,0,0,0-.29-.51.59.59,0,0,0-.6,0l-10.88,6.2a.62.62,0,0,0-.3.53v14.68a11.52,11.52,0,0,0-1.06-1.41,17.64,17.64,0,0,0-13.66-6.23h-.26a23,23,0,0,0-17,8.34c-6.71,8.3-12.92,19.95-12.92,48.83C618.12,385.78,632.82,390.15,637.33,390.67Zm8-9.47a9.52,9.52,0,0,1-8.09-1.64c-4-3.19-6.31-10.34-6.79-21.26-.11-2.45-.18-5.49-.19-8.35l.06-4.27c.51-19.57,4.51-33.65,11.57-40.71,3.12-3.13,6.16-4,8.54-4a9,9,0,0,1,1.71.16,10.33,10.33,0,0,1,7.51,5.61c2.23,4.69,3.48,11.22,3.45,18v35.89C659.62,369.17,653.76,379.64,645.29,381.2Z"
         transform="translate(-49.36 0)"
         id="path38" />
      <path
         class="cls-11"
         d="M759.08,305.29c-1.91,5.64-5.83,14.19-8.57,14.19a1.73,1.73,0,0,1-.32,0c-1.7-.44-1.53-3.62-1.53-3.7V239.59a.57.57,0,0,0-.29-.51.59.59,0,0,0-.6,0l-10.87,6.2a.62.62,0,0,0-.3.53v14.7a12.07,12.07,0,0,0-1.06-1.43,17.68,17.68,0,0,0-13.67-6.22h-.27a22.86,22.86,0,0,0-17,8.33c-6.7,8.28-12.91,19.93-12.91,48.83,0,34.33,14.69,38.7,19.2,39.22a27.54,27.54,0,0,0,3.2.19c10.41,0,16.11-6.36,20.33-12.74a92.7,92.7,0,0,0,4.88-9.25c.52,1.7,1.59,4.13,3.66,5.19a5.77,5.77,0,0,0,5.4-.28c6.71-3.33,10.83-12.59,11.91-26.8a.61.61,0,0,0-.48-.64A.67.67,0,0,0,759.08,305.29Zm-22.48-22v35.89c-3.45,8.55-9.32,19-17.78,20.58a9.54,9.54,0,0,1-8.08-1.64c-4-3.19-6.31-10.35-6.79-21.26-.15-3.29-.19-6.65-.19-8.35l0-4.27c.51-19.57,4.51-33.65,11.57-40.71,3.13-3.13,6.16-4,8.54-4a9,9,0,0,1,1.71.16,10.33,10.33,0,0,1,7.51,5.61C735.36,270,736.62,276.52,736.6,283.28Z"
         transform="translate(-49.36 0)"
         id="path39" />
      <path
         class="cls-11"
         d="M846.62,256.8a.59.59,0,0,0-.56.41c-1.91,5.63-5.83,14.18-8.57,14.18a3.16,3.16,0,0,1-.32,0c-1.7-.45-1.52-3.62-1.52-3.7v-53c0-.57.26-13.86-7.67-16.43-11.19-3.56-20.34,8.57-26.37,16.64l-.17.22a161.74,161.74,0,0,0-13.54,22.36V216.88a.56.56,0,0,0-.3-.51.57.57,0,0,0-.59,0l-10.88,6.2a.61.61,0,0,0-.3.52V316a.58.58,0,0,0,.29.51.55.55,0,0,0,.3.09.64.64,0,0,0,.3-.08l10.87-6.19a.62.62,0,0,0,.31-.53V246.31c.92-1.64,9.8-17.45,12.58-21.3,3.09-4.26,12.47-17.21,19-14.95,4.07,1.44,4.13,8.82,4.13,8.9V271.2c0,.4,0,9.71,4.72,12.84,1.89,1.27,4.23,1.32,7,.21,6.69-2.75,10.81-12,11.94-26.8a.6.6,0,0,0-.48-.63Z"
         transform="translate(-49.36 0)"
         id="path40" />
      <path
         class="cls-11"
         d="M502.63,695.72c0-.82,0-20-6.55-27.61a17.71,17.71,0,0,0-13.67-6.23h-.27a22.86,22.86,0,0,0-17,8.33c-6.71,8.28-12.92,19.93-12.92,48.84,0,34.34,14.71,38.7,19.2,39.21a30.67,30.67,0,0,0,3.24.19c11.13,0,16.88-7.15,20.3-12.75,6.37-10.44,7.7-22.65,7.7-31.06a.59.59,0,0,0-.53-.58.57.57,0,0,0-.64.46c-.08.32-7,31.5-22.1,34.26a9.54,9.54,0,0,1-8.08-1.6c-4-3.2-6.32-10.36-6.8-21.28-.11-2.39-.18-5.3-.18-8l38-21.65A.59.59,0,0,0,502.63,695.72ZM464.38,712.2c.62-19,4.61-32.71,11.54-39.64,3.12-3.12,6.15-4,8.52-4a11.3,11.3,0,0,1,1.72.14,10.42,10.42,0,0,1,7.52,5.61c2.47,5.23,3.29,17,3.43,19.22Z"
         transform="translate(-49.36 0)"
         id="path41" />
      <path
         class="cls-11"
         d="M617.81,629.38c0-.81,0-20-6.55-27.61a17.65,17.65,0,0,0-13.69-6.23h-.27a22.8,22.8,0,0,0-17,8.33c-6.71,8.29-12.92,19.94-12.92,48.84,0,34.33,14.7,38.68,19.2,39.21a30.64,30.64,0,0,0,3.23.19c11.13,0,16.89-7.15,20.32-12.76,6.36-10.42,7.69-22.64,7.69-31a.59.59,0,0,0-.53-.59l-.06,0a.6.6,0,0,0-.58.48c-.08.32-7,31.5-22.1,34.26a9.58,9.58,0,0,1-8.09-1.63c-4-3.2-6.31-10.35-6.79-21.25-.11-2.55-.18-5.44-.18-8l38-21.65A.59.59,0,0,0,617.81,629.38Zm-38.25,16.48c.62-19,4.61-32.73,11.54-39.64,3.12-3.12,6.15-4,8.52-4a12.74,12.74,0,0,1,1.72.14,10.4,10.4,0,0,1,7.52,5.62c2.48,5.21,3.29,17,3.43,19.21Z"
         transform="translate(-49.36 0)"
         id="path42" />
      <path
         class="cls-11"
         d="M557.46,688.45c-5.27,9.71-14,25.86-19,25.86h-.23c-1.28-.15-2.32-1.53-3.08-4.14-1.25-4.24-1.13-12.84-1.13-12.93V580.34a.61.61,0,0,0-.89-.52L522.25,586a.59.59,0,0,0-.3.53V703.41c0,.55.06,13.6,5.61,19.15a9.78,9.78,0,0,0,7,3,9.9,9.9,0,0,0,1.86-.17c5.88-1.07,11.55-7,16-16.8a80.7,80.7,0,0,0,6.2-19.74.6.6,0,0,0-.4-.65A.68.68,0,0,0,557.46,688.45Z"
         transform="translate(-49.36 0)"
         id="path43" />
      <path
         class="cls-11"
         d="M405.34,748.23l28.4-53.85a.59.59,0,0,0-.11-.71.64.64,0,0,0-.71-.1l-8.61,4.91a.59.59,0,0,0-.23.24L400.72,743V667.31a.61.61,0,0,0-.89-.52L389,673a.61.61,0,0,0-.3.52V809.23a.58.58,0,0,0,.3.51.53.53,0,0,0,.3.09.6.6,0,0,0,.29-.08l10.88-6.18a.59.59,0,0,0,.3-.53v-50.2l36.74,29.1a.59.59,0,0,0,.66.06l4.87-2.67a.59.59,0,0,0,.09-1Z"
         transform="translate(-49.36 0)"
         id="path44" />
    </g>
  </g>
  <metadata
     id="metadata44">
    <rdf:RDF>
      <cc:Work
         rdf:about="">
        <dc:title>Logo</dc:title>
      </cc:Work>
    </rdf:RDF>
  </metadata>
</svg>
