<svg xmlns="http://www.w3.org/2000/svg" xmlns:xlink="http://www.w3.org/1999/xlink" viewBox="0 0 1000.17 1000.18"><defs><style>.cls-1{isolation:isolate;}.cls-2{fill:#2d2d2d;}.cls-3{fill:url(#linear-gradient);}.cls-4{fill:#43ebeb;}.cls-10,.cls-11,.cls-12,.cls-4,.cls-5,.cls-6,.cls-8,.cls-9{opacity:0.7;}.cls-14,.cls-5,.cls-7{fill:#042fa8;}.cls-8{fill:#09ad00;}.cls-9{fill:#4f1fff;}.cls-10{fill:#18bf00;}.cls-11{fill:#56dd24;}.cls-12{fill:#7ff249;}.cls-13{fill:#fff;}.cls-14{mix-blend-mode:multiply;}</style><linearGradient id="linear-gradient" x1="1381.2" y1="3233.28" x2="2381.38" y2="3233.28" gradientTransform="translate(-2732.73 2381.2) rotate(-90)" gradientUnits="userSpaceOnUse"><stop offset="0" stop-color="#00d41f"/><stop offset="0.18" stop-color="#00d640"/><stop offset="0.59" stop-color="#00dc94"/><stop offset="1" stop-color="#00e2ef"/></linearGradient></defs><title>Small Profile Round Monogram</title><g class="cls-1"><g id="Layer_1" data-name="Layer 1"><circle class="cls-2" cx="500.08" cy="500.1" r="483.02"/><path class="cls-3" d="M500.56,1000C224.81,1000,.47,775.66.47,499.91S224.81-.18,500.56-.18s500.08,224.34,500.08,500.09S776.3,1000,500.56,1000Zm0-966c-256.93,0-465.95,209-465.95,466s209,466,466,466,465.94-209,465.94-465.95S757.48,34,500.56,34Z" transform="translate(-0.47 0.18)"/><path class="cls-4" d="M545.5,118.33c60.65,0,110.27,49.62,110.27,110.28v66.71L653,296.88h0l9.39-5.34V224.84c0-60.66-49.62-110.28-110.27-110.28h-1.39a109.21,109.21,0,0,0-56.87,16.05,109.2,109.2,0,0,1,50.22-12.28Z" transform="translate(-0.47 0.18)"/><path class="cls-5" d="M488.65,213.66v161.4l3.36-1.91V211.79c0-24.67,10.89-46.54,29.51-58.85-.95.45-1.84.95-2.75,1.43C499.77,166.61,488.65,188.72,488.65,213.66Z" transform="translate(-0.47 0.18)"/><g class="cls-6"><path class="cls-7" d="M423.4,427.55h0L413.88,433a38.69,38.69,0,0,0-12,57.53h0L549.1,683.63a65,65,0,0,1-20.44,93.43l-4.3,2.45,0,0-168.56,96h0L532.35,775a65,65,0,0,0,20.12-93.22L405.21,488.64l0,0a38.34,38.34,0,0,1-8-23.55,38.74,38.74,0,0,1,20.13-34l2.2-1.26c.19-.1.36-.24.54-.34Z" transform="translate(-0.47 0.18)"/></g><path class="cls-8" d="M565.1,142.76s28.37,3.39,47.92,22.94c20.6,20.6,28.58,48.58,28.58,69v53.4l2.74-1.57V233.05c0-20.37-8-48.35-28.57-68.94-19.56-19.56-47.95-23-47.93-22.94-13.79-1.27-26.08,1.06-36.47,6.07-.52.34-1,.74-1.52,1.09A69,69,0,0,1,565.1,142.76Z" transform="translate(-0.47 0.18)"/><path class="cls-8" d="M433.83,228.61A110.37,110.37,0,0,1,484.54,136l-.59.29a110.37,110.37,0,0,0-52.86,93.89V407.83l2.74-1.56Z" transform="translate(-0.47 0.18)"/><path class="cls-8" d="M625.29,496.06c17.62-23,19.05-52.63,19.05-60.6v-50.4l-2.74,1.56v50.44c0,8-1.43,37.55-19.05,60.6a85.55,85.55,0,0,1-21.21,19.71c.39-.19.77-.36,1.16-.56A85.76,85.76,0,0,0,625.29,496.06Z" transform="translate(-0.47 0.18)"/><path class="cls-8" d="M544.11,548.21c-60.65,0-110.28-49.62-110.28-110.27V421.63l-6.1,3.47v0l3.36-1.91v16.32c0,60.65,49.63,110.28,110.28,110.28h1.38a109.26,109.26,0,0,0,49.73-12c.71-.44,1.45-.86,2.15-1.31a109.14,109.14,0,0,1-49.13,11.75Z" transform="translate(-0.47 0.18)"/><path class="cls-8" d="M516.15,746.26a38.06,38.06,0,0,0-7-22.48L363.19,532.4a64.51,64.51,0,0,1-13.73-40.11,65.26,65.26,0,0,1,33.06-56.77l-2.27,1.3a65.23,65.23,0,0,0-33.54,57.07A64.51,64.51,0,0,0,360.45,534L506.38,725.37a38.14,38.14,0,0,1,7,22.48A38.86,38.86,0,0,1,494.8,781l2.6-1.47A38.91,38.91,0,0,0,516.15,746.26Z" transform="translate(-0.47 0.18)"/><polygon class="cls-8" points="345.91 865.77 345.91 881.08 348.65 879.51 348.65 864.21 345.91 865.77"/><path class="cls-9" d="M541.37,119.93h1.38C603.4,119.93,653,169.55,653,230.2v66.68l2.74-1.56V228.61c0-60.66-49.62-110.28-110.27-110.28h-1.39a109.2,109.2,0,0,0-50.22,12.28c-.72.44-1.44.86-2.15,1.31A109.06,109.06,0,0,1,541.37,119.93Z" transform="translate(-0.47 0.18)"/><path class="cls-9" d="M522.73,152.44c-.4.17-.82.32-1.21.5C502.9,165.25,492,187.12,492,211.79V373.15l2.75-1.57V210.19C494.76,186.22,505.07,164.92,522.73,152.44Z" transform="translate(-0.47 0.18)"/><path class="cls-9" d="M492,459.92c0,40.2,28.69,75,73.09,70.84,0,0,12.36-.8,27.36-8.27l1.59-1c-14.47,6.94-26.21,7.71-26.21,7.71-44.4,4.2-73.08-30.64-73.08-70.84V387L492,388.58Z" transform="translate(-0.47 0.18)"/><path class="cls-9" d="M397.19,465.07a38.34,38.34,0,0,0,8,23.55l0,0L552.47,681.75A65,65,0,0,1,532.35,775l2.41-1.38a65.06,65.06,0,0,0,20.45-93.43L408,487l0,0a38.28,38.28,0,0,1-8.05-23.55,38.73,38.73,0,0,1,19.59-33.68l-2.2,1.26A38.74,38.74,0,0,0,397.19,465.07Z" transform="translate(-0.47 0.18)"/><path class="cls-9" d="M651,381.27l2-1.16v59.42a110.37,110.37,0,0,1-51.26,92.92l.6-.29c31.9-19.38,53.4-54.37,53.4-94.22V378.53L651,381.25Z" transform="translate(-0.47 0.18)"/><path class="cls-10" d="M565.1,142.76s28.37,3.39,47.92,22.94c20.6,20.6,28.58,48.58,28.58,69v53.4l2.74-1.57V233.05c0-20.37-8-48.35-28.57-68.94-19.56-19.56-47.95-23-47.93-22.94-13.79-1.27-26.08,1.06-36.47,6.07-.52.34-1,.74-1.52,1.09A69,69,0,0,1,565.1,142.76Z" transform="translate(-0.47 0.18)"/><path class="cls-11" d="M613,165.7c-19.55-19.55-47.94-22.95-47.92-22.94a69,69,0,0,0-35.25,5.57c-.54.37-1.07.75-1.6,1.14a69.27,69.27,0,0,1,33.48-4.83s28.37,3.38,47.93,22.94c20.6,20.6,28.58,48.58,28.58,68.95V290l-4.33,2.46h0L521.62,356.35h0l120-68.3v-53.4C641.6,214.28,633.62,186.3,613,165.7Z" transform="translate(-0.47 0.18)"/><path class="cls-11" d="M619.18,499.53a85.63,85.63,0,0,1-19.75,18.77c.63-.29,1.27-.62,1.91-.93a85.55,85.55,0,0,0,21.21-19.71c17.62-23.05,19.05-52.63,19.05-60.6V386.62l2.74-1.56v0l1-.56h0l-7.1,4v50.43C638.24,446.91,636.81,476.49,619.18,499.53Z" transform="translate(-0.47 0.18)"/><path class="cls-11" d="M346.38,880.9V865.6l2.74-1.57v0L494.8,781a38.86,38.86,0,0,0,18.6-33.15,38.14,38.14,0,0,0-7-22.48L360.45,534a64.51,64.51,0,0,1-13.74-40.11,65.23,65.23,0,0,1,33.54-57.07l2.27-1.3c.16-.09.3-.21.47-.3l48.1-27.39V230.2A110.37,110.37,0,0,1,484,136.31c-.46.24-.94.43-1.39.67-32.7,19.2-54.83,54.64-54.83,95.1V409.74l-4.33,2.47h0l-46.58,26.52a65.26,65.26,0,0,0-33.47,57,64.54,64.54,0,0,0,13.74,40.12L503,727.25a38.12,38.12,0,0,1,7,22.48A38.89,38.89,0,0,1,491.29,783L487,785.45l0,0L343,867.47v15.34Z" transform="translate(-0.47 0.18)"/><path class="cls-11" d="M542.75,549.81h-1.38c-60.65,0-110.28-49.63-110.28-110.28V423.21l-3.36,1.91v16.29c0,60.65,49.62,110.27,110.27,110.27h1.39A109.21,109.21,0,0,0,590.51,539c.66-.39,1.31-.8,2-1.2A109.26,109.26,0,0,1,542.75,549.81Z" transform="translate(-0.47 0.18)"/><path class="cls-11" d="M346.38,880.9V865.6l2.74-1.57v0L494.8,781a38.86,38.86,0,0,0,18.6-33.15,38.14,38.14,0,0,0-7-22.48L360.45,534a64.51,64.51,0,0,1-13.74-40.11,65.23,65.23,0,0,1,33.54-57.07l2.27-1.3c.16-.09.3-.21.47-.3l48.1-27.39V230.2A110.37,110.37,0,0,1,484,136.31c-.46.24-.94.43-1.39.67-32.7,19.2-54.83,54.64-54.83,95.1V409.74l-4.33,2.47h0l-46.58,26.52a65.26,65.26,0,0,0-33.47,57,64.54,64.54,0,0,0,13.74,40.12L503,727.25a38.12,38.12,0,0,1,7,22.48A38.89,38.89,0,0,1,491.29,783L487,785.45l0,0L343,867.47v15.34Z" transform="translate(-0.47 0.18)"/><path class="cls-12" d="M557.41,147.11s28.37,3.38,47.92,22.94c20.6,20.59,28.58,48.58,28.58,68.94v53.43l4.33-2.46V236.53c0-20.37-8-48.35-28.58-68.95-19.56-19.56-47.94-23-47.93-22.94a69.27,69.27,0,0,0-33.48,4.83c-.69.52-1.42,1-2.1,1.54A70.05,70.05,0,0,1,557.41,147.11Z" transform="translate(-0.47 0.18)"/><path class="cls-12" d="M619.18,499.53c17.63-23,19.06-52.62,19.06-60.6V388.5L633.91,391V441.4c0,8-1.43,37.56-19,60.6a85.82,85.82,0,0,1-17.71,17.3l2.28-1A85.63,85.63,0,0,0,619.18,499.53Z" transform="translate(-0.47 0.18)"/><path class="cls-12" d="M427.73,232.08c0-40.46,22.13-75.9,54.83-95.1-35.08,18.52-59.16,55.34-59.16,97.56V412.21l4.33-2.47Z" transform="translate(-0.47 0.18)"/><path class="cls-12" d="M538,551.68c-60.65,0-110.27-49.62-110.27-110.27V425.12l-1.32.75c-1,.58-2,1.24-3,1.91v16.1c0,60.65,49.62,110.27,110.28,110.27h1.38A109.26,109.26,0,0,0,590.51,539a109.21,109.21,0,0,1-51.12,12.71Z" transform="translate(-0.47 0.18)"/><path class="cls-12" d="M510,749.73a38.12,38.12,0,0,0-7-22.48L357.09,535.88a64.54,64.54,0,0,1-13.74-40.12,65.26,65.26,0,0,1,33.47-57l-4.26,2.43A65.26,65.26,0,0,0,339,498.23a64.51,64.51,0,0,0,13.74,40.11L498.69,729.72a38.1,38.1,0,0,1,7,22.48A38.88,38.88,0,0,1,487,785.45l4.31-2.45A38.89,38.89,0,0,0,510,749.73Z" transform="translate(-0.47 0.18)"/><polygon class="cls-12" points="342.54 882.99 342.54 867.65 338.22 870.12 338.22 885.46 345.91 881.08 345.91 881.08 342.54 882.99"/><path class="cls-4" d="M423.4,427.59l-3.88,2.2a38.73,38.73,0,0,0-19.59,33.68A38.28,38.28,0,0,0,408,487l0,0L555.21,680.16a65.06,65.06,0,0,1-20.45,93.43L532.35,775l-.17.11,9.23-5.26a65.06,65.06,0,0,0,20.45-93.43L414.6,483.27l0,0a38.32,38.32,0,0,1-8-23.55,38.73,38.73,0,0,1,16.82-31.92v-.19Z" transform="translate(-0.47 0.18)"/><path class="cls-4" d="M501.4,206.42c0-22.49,9.05-42.69,24.75-55.41-1.16.44-2.29.93-3.42,1.43-17.66,12.48-28,33.78-28,57.75V371.58l6.64-3.78Z" transform="translate(-0.47 0.18)"/><path class="cls-4" d="M494.76,387v71.3c0,40.2,28.68,75,73.08,70.84,0,0,11.74-.77,26.21-7.71,1-.68,2.06-1.4,3.1-2.15-12.79,5.45-22.66,6.09-22.66,6.09-44.4,4.2-73.09-30.64-73.09-70.84V383.24Z" transform="translate(-0.47 0.18)"/><path class="cls-4" d="M602.37,532.16c35.55-18.36,60-55.42,60-98V374.75l-6.65,3.78v59.41C655.77,477.79,634.27,512.78,602.37,532.16Z" transform="translate(-0.47 0.18)"/><path class="cls-13" d="M645.49,301.33l4.33-2.46.16-.08V232.22a109.28,109.28,0,0,0-22.75-66.79C606,137.6,574,121.63,539.39,121.63H538A108.88,108.88,0,0,0,489.59,133a3.25,3.25,0,0,1-.49.25,2.85,2.85,0,0,0-.58.29l-.32.15v0l-.5.25-.79.43a9.63,9.63,0,0,0-1.36.79c-.35.22-.7.45-1.19.71a110.32,110.32,0,0,0-50.85,92.84V406.1l-51.15,29.16a65.48,65.48,0,0,0-33.22,57,64.5,64.5,0,0,0,13.79,40.31L508.87,724a37.86,37.86,0,0,1,7,22.3,38.65,38.65,0,0,1-18.59,33l-2.63,1.49s0,0,0,0l-.08.06L355.62,860,349,863.77l-.16.08v16l7.12-4,4.33-2.34,164.27-93.56c.26-.16.5-.33.75-.5s.44-.32.66-.46l2.89-1.64a65.38,65.38,0,0,0,20.53-93.9L402.26,490.54l0,0-.18-.22a37.8,37.8,0,0,1-8-23.34,38.19,38.19,0,0,1,17.72-32.32l2.17-1.24.11-.07,13.27-7.56v0l6.11-3.48v15.79A110.91,110.91,0,0,0,544.11,548.67h1.39a109,109,0,0,0,49.3-11.8l.25-.16a5.39,5.39,0,0,1,.56-.37l.24-.12.28-.14,3.21-2,.59-.28.62-.32a110.11,110.11,0,0,0,49-82.95c.22-2.71.46-5.86.46-9v-59.7l-6,3.39v50.37c0,5.94-.92,36.79-19,60.4a84.89,84.89,0,0,1-21.37,19.76l-.64.37a6,6,0,0,1-.7.4c-1.15.73-2.25,1.36-3.2,1.89-2,1.26-3.86,2.29-5.58,3.18-.69.4-1.5.86-2.32,1.3-.5.31-1,.57-1.47.82l-.75.41c-14.78,7.38-27.17,8.32-27.3,8.33-2.45.22-4.86.34-7.24.34-16.39,0-31-5.5-42.7-16.1C497.28,503.53,489,483.57,489,462V390.79ZM518.94,154.79c1-.63,2-1.22,3.06-1.77l.67-.37c.43-.27.89-.51,1.34-.76s.65-.34,1-.54a61.91,61.91,0,0,1,6.52-3.69,66,66,0,0,1,29-6.38q3.6,0,7.32.33v0c1.17.14,28.7,3.82,47.74,22.84,21,21,28.48,49.28,28.48,68.73v53.12L512.54,361.2v0l-7.69,4.37h0l-12.53,7.13v0L489,374.52V213.81C489,189,500.17,166.87,518.94,154.79ZM620.12,502.35l0,0Zm-10.9,9.9.21-.16ZM553.36,533.1h0Z" transform="translate(-0.47 0.18)"/><path class="cls-5" d="M651,381.27l-1.32.76v59.38c0,3-.22,6-.46,9a110.48,110.48,0,0,1-48.83,82.72l1.39-.67A110.37,110.37,0,0,0,653,439.53V380.11Z" transform="translate(-0.47 0.18)"/><path class="cls-5" d="M488.65,461.79c0,40.2,28.69,75,73.08,70.84,0,0,13.64-.86,29.66-9.44.36-.22.72-.48,1.07-.7-15,7.47-27.36,8.27-27.36,8.27C520.7,535,492,500.12,492,459.92V388.58l2.75-1.56v0l86.47-49.23-92.58,52.7Z" transform="translate(-0.47 0.18)"/><g class="cls-6"><polygon class="cls-14" points="644.87 301.44 644.87 301.44 580.76 337.94 644.87 301.44"/></g><path class="cls-5" d="M653,230.2c0-60.65-49.63-110.27-110.28-110.27h-1.38a109.06,109.06,0,0,0-49.63,12c-.65.41-1.33.78-2,1.2A109.12,109.12,0,0,1,538,121.8h1.39A110.9,110.9,0,0,1,649.67,232.08v66.71l-4.33,2.46h0l7.69-4.38Z" transform="translate(-0.47 0.18)"/></g></g></svg>